<?xml version="1.0" encoding="UTF-8" standalone="no"?>
<svg
   xmlns:dc="http://purl.org/dc/elements/1.1/"
   xmlns:cc="http://creativecommons.org/ns#"
   xmlns:rdf="http://www.w3.org/1999/02/22-rdf-syntax-ns#"
   xmlns:svg="http://www.w3.org/2000/svg"
   xmlns="http://www.w3.org/2000/svg"
   xmlns:sodipodi="http://sodipodi.sourceforge.net/DTD/sodipodi-0.dtd"
   xmlns:inkscape="http://www.inkscape.org/namespaces/inkscape"
   width="42.607mm"
   height="41.555mm"
   viewBox="0 0 42.607 41.555"
   version="1.1"
   id="svg8"
   inkscape:version="1.0.1 (3bc2e813f5, 2020-09-07)"
   sodipodi:docname="GitHub-Mark-dark-120px.svg">
  <defs
     id="defs2" />
  <sodipodi:namedview
     id="base"
     pagecolor="#ffffff"
     bordercolor="#666666"
     borderopacity="1.0"
     inkscape:pageopacity="0.0"
     inkscape:pageshadow="2"
     inkscape:zoom="2.107774"
     inkscape:cx="53.070442"
     inkscape:cy="51.061989"
     inkscape:document-units="mm"
     inkscape:current-layer="layer1"
     inkscape:document-rotation="0"
     showgrid="false"
     inkscape:window-width="42.607"
     inkscape:window-height="41.555"
     inkscape:window-x="-9"
     inkscape:window-y="-9"
     inkscape:window-maximized="1" />
  <metadata
     id="metadata5">
    <rdf:RDF>
      <cc:Work
         rdf:about="">
        <dc:format>image/svg+xml</dc:format>
        <dc:type
           rdf:resource="http://purl.org/dc/dcmitype/StillImage" />
        <dc:title />
      </cc:Work>
    </rdf:RDF>
  </metadata>
  <g
     inkscape:label="Layer 1"
     inkscape:groupmode="layer"
     id="layer1">
    <path
       d="M 21.303544,0 C 9.5394633,0 0,9.537347 0,21.303191 c 0,9.412463 6.1041133,17.397942 14.568663,20.214943 1.064684,0.197167 1.455561,-0.462209 1.455561,-1.02489 0,-0.508 -0.01976,-2.186165 -0.02893,-3.966282 C 10.06863,37.81566 8.8180327,34.01342 8.8180327,34.01342 7.8489523,31.551033 6.4526577,30.896277 6.4526577,30.896277 4.5197883,29.574067 6.598355,29.601229 6.598355,29.601229 c 2.1392443,0.149931 3.2656637,2.195338 3.2656637,2.195338 1.9000613,3.256843 4.9836923,2.315278 6.1993643,1.770943 0.191205,-1.37654 0.743303,-2.317043 1.35255,-2.848681 -4.731808,-0.538692 -9.7059753,-2.365375 -9.7059753,-10.528299 0,-2.325864 0.8322029,-4.226278 2.1949833,-5.718175 -0.2211917,-0.536928 -0.9503833,-2.703336 0.206375,-5.6377413 0,0 1.788936,-0.5725583 5.859992,2.1836943 1.69933,-0.472017 3.52178,-0.708731 5.332236,-0.716844 1.810455,0.0081 3.634316,0.244827 5.336823,0.716844 4.066116,-2.7562526 5.852583,-2.1836943 5.852583,-2.1836943 1.159579,2.9344053 0.430035,5.1008133 0.208844,5.6377413 1.365956,1.491897 2.192514,3.392311 2.192514,5.718175 0,8.182328 -4.983691,9.983964 -9.727495,10.511365 0.764117,0.661107 1.444979,1.957565 1.444979,3.945115 0,2.850092 -0.02469,5.144207 -0.02469,5.846234 0,0.566914 0.383471,1.231159 1.463323,1.021998 C 36.510394,38.695135 42.606746,30.712479 42.606746,21.303191 42.606735,9.537347 33.068683,0 21.303544,0"
       style="fill:#ffffff;fill-opacity:1;fill-rule:evenodd;stroke:none;stroke-width:0.0352777"
       id="path106" />
    <path
       d="m 8.0687327,30.586892 c -0.046919,0.106185 -0.2134304,0.137583 -0.365125,0.06491 -0.1545167,-0.0695 -0.2413,-0.213783 -0.1912054,-0.319969 0.045861,-0.109008 0.212725,-0.138996 0.3668887,-0.06668 0.1548696,0.06985 0.243064,0.215546 0.1894417,0.321734 v 0"
       style="fill:#ffffff;fill-opacity:1;fill-rule:nonzero;stroke:none;stroke-width:0.0352777"
       id="path108" />
    <path
       d="m 8.931627,31.549269 c -0.1016,0.09419 -0.3002137,0.05045 -0.4349747,-0.09842 -0.1393473,-0.148519 -0.165453,-0.347134 -0.062442,-0.442736 0.104775,-0.09419 0.2973917,-0.0501 0.4370914,0.09842 0.1393473,0.150284 0.1665113,0.347486 0.060325,0.442736 v 0"
       style="fill:#ffffff;fill-opacity:1;fill-rule:nonzero;stroke:none;stroke-width:0.0352777"
       id="path110" />
    <path
       d="m 9.771591,32.776229 c -0.1305277,0.09067 -0.3439583,0.0056 -0.4758973,-0.183796 -0.1305277,-0.189441 -0.1305277,-0.416631 0.00282,-0.507648 0.1322917,-0.09102 0.3425473,-0.0092 0.47625,0.178859 0.130175,0.192264 0.130175,0.419806 -0.00317,0.512585 v 0"
       style="fill:#ffffff;fill-opacity:1;fill-rule:nonzero;stroke:none;stroke-width:0.0352777"
       id="path112" />
    <path
       d="m 10.922352,33.961562 c -0.116769,0.128765 -0.365477,0.09419 -0.547511,-0.08149 -0.186266,-0.171801 -0.238125,-0.41557 -0.121002,-0.544335 0.11818,-0.129116 0.3683,-0.09278 0.551744,0.08149 0.184856,0.17145 0.2413,0.416983 0.116769,0.544335 v 0"
       style="fill:#ffffff;fill-opacity:1;fill-rule:nonzero;stroke:none;stroke-width:0.0352777"
       id="path114" />
    <path
       d="m 12.509852,34.649833 c -0.05151,0.166862 -0.291041,0.242711 -0.532341,0.171802 -0.240947,-0.07303 -0.398639,-0.268465 -0.349956,-0.437091 0.0501,-0.167924 0.290689,-0.246944 0.533753,-0.171099 0.240594,0.07267 0.398639,0.2667 0.348544,0.436388 v 0"
       style="fill:#ffffff;fill-opacity:1;fill-rule:nonzero;stroke:none;stroke-width:0.0352777"
       id="path116" />
    <path
       d="m 14.25328,34.777537 c 0.006,0.175683 -0.198614,0.321382 -0.451908,0.324205 -0.254706,0.006 -0.460728,-0.136173 -0.46355,-0.309034 0,-0.177448 0.200025,-0.321733 0.45473,-0.325966 0.253295,-0.0049 0.460728,0.13617 0.460728,0.310795 v 0"
       style="fill:#ffffff;fill-opacity:1;fill-rule:nonzero;stroke:none;stroke-width:0.0352777"
       id="path118" />
    <path
       d="m 15.875705,34.501312 c 0.03034,0.17145 -0.145697,0.347488 -0.397228,0.394055 -0.247297,0.04551 -0.47625,-0.06032 -0.507647,-0.230365 -0.03069,-0.175683 0.14852,-0.351719 0.395464,-0.397227 0.251883,-0.04375 0.477308,0.05927 0.509411,0.233537 v 0"
       style="fill:#ffffff;fill-opacity:1;fill-rule:nonzero;stroke:none;stroke-width:0.0352777"
       id="path120" />
  </g>
</svg>
