<?xml version="1.0" encoding="UTF-8" standalone="no"?>
<svg
   xmlns:dc="http://purl.org/dc/elements/1.1/"
   xmlns:cc="http://creativecommons.org/ns#"
   xmlns:rdf="http://www.w3.org/1999/02/22-rdf-syntax-ns#"
   xmlns:svg="http://www.w3.org/2000/svg"
   xmlns="http://www.w3.org/2000/svg"
   xmlns:sodipodi="http://sodipodi.sourceforge.net/DTD/sodipodi-0.dtd"
   xmlns:inkscape="http://www.inkscape.org/namespaces/inkscape"
   width="42.607mm"
   height="41.555mm"
   viewBox="0 0 42.607 41.555"
   version="1.1"
   id="svg8"
   inkscape:version="1.0.1 (3bc2e813f5, 2020-09-07)"
   sodipodi:docname="GitHub-Mark-light-120px.svg">
  <defs
     id="defs2" />
  <sodipodi:namedview
     id="base"
     pagecolor="#ffffff"
     bordercolor="#666666"
     borderopacity="1.0"
     inkscape:pageopacity="0.0"
     inkscape:pageshadow="2"
     inkscape:zoom="1.4904213"
     inkscape:cx="10.398824"
     inkscape:cy="75.785318"
     inkscape:document-units="mm"
     inkscape:current-layer="layer1"
     inkscape:document-rotation="0"
     showgrid="false"
     inkscape:window-width="1920"
     inkscape:window-height="1001"
     inkscape:window-x="-9"
     inkscape:window-y="-9"
     inkscape:window-maximized="1" />
  <metadata
     id="metadata5">
    <rdf:RDF>
      <cc:Work
         rdf:about="">
        <dc:format>image/svg+xml</dc:format>
        <dc:type
           rdf:resource="http://purl.org/dc/dcmitype/StillImage" />
        <dc:title />
      </cc:Work>
    </rdf:RDF>
  </metadata>
  <g
     inkscape:label="Layer 1"
     inkscape:groupmode="layer"
     id="layer1">
    <path
       d="M 21.303544,0 C 9.539464,0 0,9.5377 0,21.303544 c 0,9.412464 6.104114,17.397941 14.568663,20.214873 1.064684,0.197202 1.455561,-0.46214 1.455561,-1.024822 0,-0.508 -0.01976,-2.186162 -0.02893,-3.966278 C 10.068627,37.816012 8.81803,34.013775 8.81803,34.013775 7.84895,31.551385 6.452655,30.896629 6.452655,30.896629 c -1.932869,-1.32221 0.145698,-1.295046 0.145698,-1.295046 2.139244,0.149929 3.265663,2.195687 3.265663,2.195687 1.900061,3.256492 4.983692,2.31493 6.199364,1.770592 0.191205,-1.376892 0.743303,-2.317043 1.35255,-2.848679 -4.731808,-0.538691 -9.705975,-2.365375 -9.705975,-10.5283 0,-2.325864 0.832203,-4.226278 2.194984,-5.718175 -0.221192,-0.536928 -0.950384,-2.703336 0.206374,-5.637742 0,0 1.788936,-0.572558 5.859992,2.183695 1.69933,-0.472017 3.52178,-0.708731 5.332236,-0.716845 1.810455,0.0081 3.634316,0.244828 5.336823,0.716845 4.066116,-2.756253 5.852583,-2.183695 5.852583,-2.183695 1.159579,2.934406 0.430035,5.100814 0.208844,5.637742 1.365956,1.491897 2.192514,3.392311 2.192514,5.718175 0,8.182327 -4.983691,9.983962 -9.727495,10.511367 0.764117,0.661104 1.444979,1.957562 1.444979,3.945112 0,2.850446 -0.02469,5.144558 -0.02469,5.846233 0,0.566915 0.383471,1.231197 1.463323,1.021999 C 36.510394,38.695487 42.606746,30.712833 42.606746,21.303544 42.606735,9.5377 33.068683,0 21.303544,0"
       style="fill:#1b1817;fill-opacity:1;fill-rule:evenodd;stroke:none;stroke-width:0.0352777"
       id="path16" />
    <path
       d="m 8.068733,30.587244 c -0.04692,0.106185 -0.21343,0.137583 -0.365125,0.06491 -0.154516,-0.0695 -0.2413,-0.213784 -0.191205,-0.319969 0.04586,-0.108656 0.212725,-0.138993 0.366889,-0.06668 0.154869,0.06985 0.243064,0.215548 0.189441,0.321734 v 0"
       style="fill:#1b1817;fill-opacity:1;fill-rule:nonzero;stroke:none;stroke-width:0.0352777"
       id="path18" />
    <path
       d="M 8.931628,31.54962 C 8.830028,31.64381 8.631414,31.60007 8.496653,31.45119 8.357306,31.302672 8.3312,31.104057 8.434213,31.008455 c 0.104775,-0.09384 0.297392,-0.04974 0.437091,0.09842 0.139348,0.150284 0.166512,0.347485 0.06033,0.442735 v 0"
       style="fill:#1b1817;fill-opacity:1;fill-rule:nonzero;stroke:none;stroke-width:0.0352777"
       id="path20" />
    <path
       d="m 9.771592,32.776583 c -0.130528,0.09066 -0.343959,0.0056 -0.475898,-0.183798 -0.130527,-0.189441 -0.130527,-0.416631 0.0028,-0.507648 0.132292,-0.09102 0.342548,-0.0088 0.47625,0.178858 0.130175,0.192617 0.130175,0.419807 -0.0032,0.512588 v 0"
       style="fill:#1b1817;fill-opacity:1;fill-rule:nonzero;stroke:none;stroke-width:0.0352777"
       id="path22" />
    <path
       d="m 10.922352,33.961917 c -0.116769,0.128762 -0.365477,0.09419 -0.547511,-0.08149 -0.186266,-0.171805 -0.238125,-0.415573 -0.121002,-0.544338 0.11818,-0.129117 0.3683,-0.09278 0.551744,0.08149 0.184856,0.17145 0.2413,0.416983 0.116769,0.544338 v 0"
       style="fill:#1b1817;fill-opacity:1;fill-rule:nonzero;stroke:none;stroke-width:0.0352777"
       id="path24" />
    <path
       d="m 12.509852,34.650185 c -0.05151,0.166865 -0.291041,0.24271 -0.532341,0.171802 -0.240947,-0.07303 -0.398639,-0.268462 -0.349956,-0.437092 0.0501,-0.16792 0.290689,-0.246943 0.533753,-0.171095 0.240594,0.07267 0.398639,0.2667 0.348544,0.436385 v 0"
       style="fill:#1b1817;fill-opacity:1;fill-rule:nonzero;stroke:none;stroke-width:0.0352777"
       id="path26" />
    <path
       d="m 14.25328,34.777892 c 0.006,0.175683 -0.198614,0.321378 -0.451908,0.324553 -0.254706,0.0056 -0.460728,-0.136525 -0.46355,-0.309385 0,-0.177448 0.200025,-0.321733 0.45473,-0.325966 0.253295,-0.0049 0.460728,0.136173 0.460728,0.310798 v 0"
       style="fill:#1b1817;fill-opacity:1;fill-rule:nonzero;stroke:none;stroke-width:0.0352777"
       id="path28" />
    <path
       d="m 15.875705,34.501667 c 0.03034,0.17145 -0.145697,0.347485 -0.397228,0.394403 -0.247297,0.04516 -0.47625,-0.06068 -0.507647,-0.230716 -0.03069,-0.175684 0.14852,-0.351719 0.395464,-0.397227 0.251883,-0.04374 0.477308,0.05927 0.509411,0.23354 v 0"
       style="fill:#1b1817;fill-opacity:1;fill-rule:nonzero;stroke:none;stroke-width:0.0352777"
       id="path30" />
  </g>
</svg>
