<?xml version="1.0" encoding="UTF-8" standalone="no"?>
<svg
   xmlns:dc="http://purl.org/dc/elements/1.1/"
   xmlns:cc="http://creativecommons.org/ns#"
   xmlns:rdf="http://www.w3.org/1999/02/22-rdf-syntax-ns#"
   xmlns:svg="http://www.w3.org/2000/svg"
   xmlns="http://www.w3.org/2000/svg"
   xmlns:sodipodi="http://sodipodi.sourceforge.net/DTD/sodipodi-0.dtd"
   xmlns:inkscape="http://www.inkscape.org/namespaces/inkscape"
   width="49.859001mm"
   height="72.249001mm"
   viewBox="0 0 49.859005 72.248997"
   version="1.1"
   id="svg997"
   inkscape:version="1.0.1 (3bc2e813f5, 2020-09-07)"
   sodipodi:docname="scratch.svg">
  <defs
     id="defs991" />
  <sodipodi:namedview
     id="base"
     pagecolor="#ffffff"
     bordercolor="#666666"
     borderopacity="1.0"
     inkscape:pageopacity="0.0"
     inkscape:pageshadow="2"
     inkscape:zoom="2.0428362"
     inkscape:cx="107.23347"
     inkscape:cy="127.78104"
     inkscape:document-units="mm"
     inkscape:current-layer="layer1"
     inkscape:document-rotation="0"
     showgrid="false"
     inkscape:window-width="1920"
     inkscape:window-height="1001"
     inkscape:window-x="-9"
     inkscape:window-y="-9"
     inkscape:window-maximized="1" />
  <metadata
     id="metadata994">
    <rdf:RDF>
      <cc:Work
         rdf:about="">
        <dc:format>image/svg+xml</dc:format>
        <dc:type
           rdf:resource="http://purl.org/dc/dcmitype/StillImage" />
        <dc:title></dc:title>
      </cc:Work>
    </rdf:RDF>
  </metadata>
  <g
     inkscape:label="Layer 1"
     inkscape:groupmode="layer"
     id="layer1"
     style="display:inline">
    <path
       style="fill:#f8aa3c;stroke:#ffffff;stroke-width:12;stroke-miterlimit:4;stroke-dasharray:none;stroke-opacity:1;paint-order:markers stroke fill;stroke-linecap:round;stroke-linejoin:round"
       d="M 12.380621,64.911047 C 10.333105,64.495996 7.9563488,62.672774 7.0136109,60.793987 6.147554,59.068019 6.0460212,57.81822 6.0205085,48.569558 5.9913988,38.017157 5.9891889,38.030529 8.1470076,35.689547 L 9.2521557,34.490586 8.6611286,32.957898 C 7.7445833,30.581054 7.6432895,26.161386 8.4160045,22.262596 9.5712669,16.433632 11.129006,12.665799 13.113013,10.901555 c 1.508302,-1.3412278 4.430498,-2.7848972 6.381235,-3.1525586 1.847548,-0.3482113 4.948262,-0.3430933 6.598813,0.01089 1.228615,0.2634933 1.375154,0.2338793 2.55958,-0.5172665 3.971523,-2.5187025 9.308911,-1.1238991 11.449556,2.9920821 0.619254,1.190669 0.711963,1.714671 0.800062,4.521738 0.0548,1.746252 -0.0894,5.154254 -0.320537,7.573337 -0.231097,2.419083 -0.420175,5.262772 -0.420175,6.319309 0,1.056536 -0.138309,2.382589 -0.307337,2.946782 -0.288787,0.963875 -0.256447,1.096664 0.535565,2.199539 1.966367,2.738148 3.462959,7.02303 3.469299,9.932936 0.0145,6.649258 -3.844186,11.845484 -10.717616,14.432665 -2.956965,1.113016 -6.938488,1.970799 -9.149473,1.971177 l -2.014516,2.64e-4 -0.709382,1.023659 c -1.323754,1.910201 -3.306141,3.208583 -5.659383,3.70667 -1.529793,0.32379 -1.845259,0.3285 -3.228083,0.04819 z m 2.919036,-6.238209 c 1.223326,-0.632613 1.529432,-1.526612 1.378414,-4.025782 -0.157458,-2.605664 0.105089,-2.867601 1.850768,-1.846504 1.448153,0.847063 3.696497,1.511137 5.116231,1.511137 1.545741,0 6.83707,-1.374165 8.730227,-2.267254 2.245284,-1.059197 4.445928,-3.330394 4.984632,-5.14442 0.87275,-2.938892 0.268457,-6.481534 -1.568892,-9.197648 -1.631231,-2.411413 -4.23987,-3.835047 -7.932477,-4.329052 -1.018628,-0.136276 -2.724438,-0.363101 -3.790685,-0.504057 -1.066248,-0.140955 -2.514491,-0.504017 -3.218333,-0.806803 -1.084597,-0.466588 -1.362934,-0.74402 -1.825688,-1.819738 -0.786201,-1.827593 -0.939019,-3.776377 -0.469975,-5.99348 1.169646,-5.528868 2.148985,-7.243836 4.136622,-7.243836 1.288135,0 1.942257,0.294182 3.108933,1.398201 1.194516,1.130368 3.162593,5.934899 3.809616,9.300169 0.327746,1.704632 0.670622,2.782133 0.952679,2.993832 0.751671,0.564171 2.299543,0.404257 3.078964,-0.318096 0.669402,-0.620385 0.700181,-0.768255 0.702251,-3.373441 10e-4,-1.498538 0.129329,-3.796179 0.284747,-5.105868 0.155418,-1.309688 0.303266,-3.826747 0.328556,-5.593464 0.0538,-3.758311 -0.204377,-4.328421 -1.960177,-4.328421 -1.458333,0 -2.201664,1.00443 -2.002766,2.706231 0.107388,0.918807 0.0393,1.357939 -0.256407,1.653647 -0.539314,0.539326 -0.549684,0.536221 -1.70988,-0.511956 -2.214015,-2.000255 -4.907303,-2.767783 -7.925728,-2.258654 -2.665849,0.44966 -4.067742,1.435141 -5.015711,3.525864 -1.215706,2.68122 -2.380952,7.889637 -2.381692,10.645717 -6.9e-4,2.566309 1.239105,5.451548 2.856356,6.647249 1.882908,1.392113 3.780696,1.984822 7.461903,2.330469 5.209649,0.489159 7.951597,1.899411 9.114613,4.68786 1.019499,2.444353 0.202848,6.031847 -1.65383,7.265216 -2.61437,1.736693 -7.660581,2.583244 -9.504729,1.594509 -2.403222,-1.28848 -4.343769,-4.462171 -4.989272,-8.159772 -0.208997,-1.197145 -0.575913,-2.393129 -0.81538,-2.65774 -0.668152,-0.738301 -2.498861,-0.645324 -3.475539,0.176513 l -0.781531,0.657624 0.0336,8.713786 0.0336,8.713785 0.641423,0.682767 c 0.729461,0.776476 1.550161,0.862831 2.674488,0.28141 z"
       id="path1610" />
  </g>
  <g
     inkscape:groupmode="layer"
     id="layer2"
     inkscape:label="Layer 2"
     style="display:inline" />
</svg>
